<svg class="icon" style="width: 20em;height: 20em;vertical-align: middle;fill: currentColor;overflow: hidden;" viewBox="0 0 1024 1024" version="1.1" xmlns="http://www.w3.org/2000/svg" p-id="11189"><path d="M504.4 926c-74 0-148-20.4-214-58.8-69.6-40.4-128-101.6-164-172.4-29.2-57.2-45.2-120.8-46.4-184-2.8-108.4 38-216.8 112.4-297.2 20-21.6 42.4-41.2 66.8-58.4 24.4-17.2 50.4-32 78-43.6 27.6-12 56.4-20.8 85.2-26.8 22-4.4 46.8-7.2 73.2-8h18c63.2 0.8 128 17.6 187.6 48.8 50.4 26.4 96 63.2 131.2 106 45.2 55.2 76.4 121.6 89.6 192 4.8 25.6 7.2 51.6 7.2 78v9.2c-2 76-23.6 149.6-62.4 212.8-0.8 1.6-2 3.2-2.8 4.8-3.2-3.2-6.8-6-10.4-8.8 44.4-100.8 22.8-221.6-55.6-300.4C746.4 368.4 678.8 340 606.8 340c-72 0-139.6 28-190.8 79.2-84.4 84.4-103.2 211.6-47.6 317.2 12.4 23.6 28.4 45.2 47.6 64.4 50.8 50.8 118.8 79.2 190.8 79.2 38 0 75.2-8 109.6-23.2 2.4 3.2 4.8 6 7.6 9.2-58.8 36.4-130.8 57.6-206.4 60h-13.2z" fill="#FFD552" p-id="11190"></path><path d="M606.8 835.6c-60.4 0-117.2-23.6-159.6-66-88-88-88-231.2 0-319.2 42.8-42.8 99.2-66 159.6-66 60.4 0 117.2 23.6 159.6 66 88 88 88 231.2 0 319.2-42.8 42.8-99.2 66-159.6 66z m0-438.8c-56.8 0-110.4 22-150.8 62.4-83.2 83.2-83.2 218.4 0 301.6 40.4 40.4 94 62.4 150.8 62.4 56.8 0 110.4-22 150.8-62.4 83.2-83.2 83.2-218.4 0-301.6-40.4-40.4-94-62.4-150.8-62.4z m0 367.6c-41.2 0-80-16-109.2-45.2-29.2-29.2-45.2-68-45.2-109.2s16-80 45.2-109.2c29.2-29.2 68-45.2 109.2-45.2s80 16 109.2 45.2c60 60 60 158 0 218-29.2 29.2-68 45.6-109.2 45.6z m0-296c-38 0-73.6 14.8-100 41.6-26.8 26.8-41.6 62.4-41.6 100 0 38 14.8 73.6 41.6 100 26.8 26.8 62.4 41.6 100 41.6 38 0 73.6-14.8 100-41.6 55.2-55.2 55.2-145.2 0-200.4-26.8-26.4-62-41.2-100-41.2z" fill="#4A555F" p-id="11191"></path><path d="M606.8 808.4c-53.2 0-102.8-20.8-140.4-58-77.2-77.2-77.2-203.2 0-280.8 37.6-37.6 87.2-58 140.4-58s102.8 20.8 140.4 58c77.2 77.6 77.2 203.2 0 280.8-37.6 37.6-87.2 58-140.4 58z m0-367.2c-45.2 0-87.6 17.6-119.6 49.6s-49.6 74.4-49.6 119.6c0 45.2 17.6 87.6 49.6 119.6s74.4 49.6 119.6 49.6c45.2 0 87.6-17.6 119.6-49.6 66-66 66-173.2 0-238.8-32-32.4-74.4-50-119.6-50z" fill="#71CDE1" p-id="11192"></path><path d="M912.8 992.4l-155.2-155.2c-10.4-10.4-16-24-16-38.4 0-14.4 5.6-28 16-38.4 10.4-10.4 24-16 38.4-16 14.4 0 28 5.6 38.4 16l155.2 155.2-76.8 76.8zM796 757.6c-11.2 0-21.6 4.4-29.2 12s-12 18.4-12 29.2c0 11.2 4.4 21.6 12 29.2l146.4 146.4 58.8-58.8-146.4-146.4c-8.4-7.6-18.8-11.6-29.6-11.6z" fill="#4A555F" p-id="11193"></path><path d="M776.8 818c-10.4-10.4-10.4-27.6 0-38 5.2-5.2 12-8 19.2-8 7.2 0 14 2.8 19.2 8l136 136-38 38-136.4-136z" fill="#F68F6F" p-id="11194"></path><path d="M956 1024c-7.6 0-14.4-2.8-20-8.4l-32.4-32.4 76.4-76.4 32.4 32.4c5.2 5.2 8.4 12.4 8.4 20s-2.8 14.4-8.4 20l-36.8 36.8c-5.2 5.2-12.4 8-19.6 8z m-34.4-40.4l23.2 23.2c6 6 16 6 22 0l36.8-36.8c2.8-2.8 4.4-6.8 4.4-10.8 0-4-1.6-8-4.4-10.8l-23.2-23.2-58.8 58.4z" fill="#4A555F" p-id="11195"></path><path d="M844.4 789.6c2.8-3.2 5.2-6.4 7.6-9.6-2.4 3.2-5.2 6.4-7.6 9.6zM956 996.8c-0.4 0-0.4 0-0.4-0.4l-12.8-12.8 38-38 13.2 12.8c0.4 0.4 0.4 0.8 0 1.2l-36.8 36.8c-0.8 0.4-1.2 0.4-1.2 0.4z" fill="#FFD552" p-id="11196"></path><path d="M682 582.4c0-41.6-33.6-75.2-75.2-75.2s-75.2 33.6-75.2 75.2c0 12.8 3.2 24.8 8.8 35.2 2 3.6 4 6.8 6.4 10l60 92.4 60-92.4c2.4-3.2 4.4-6.4 6.4-10 5.6-10.4 8.8-22.4 8.8-35.2z m-75.2 20.8c-14.4 0-26-11.6-26-26s11.6-26 26-26 26 11.6 26 26-11.6 26-26 26z" fill="#F68F6F" p-id="11197"></path><path d="M849.2 793.6l-9.6-8c2.4-3.2 5.2-6 7.6-9.2l10 7.6c-2.4 2.8-4.8 6-8 9.6z" fill="#4A555F" p-id="11198"></path><path d="M504.4 953.2c-78.8 0-157.6-21.6-227.6-62.4-74-43.2-136-108.4-174.4-183.6-31.2-60.8-48.4-128.4-49.6-196-2.8-115.2 40.4-230.8 119.6-316 21.2-23.2 45.2-44 71.2-62.4s53.6-34 82.8-46.4c29.2-12.4 60-22 90.8-28.4 23.6-4.8 49.6-7.6 77.6-8.4h19.2c67.6 0.8 136.8 18.8 200 52 53.6 28 102 67.2 139.6 112.8 48.4 58.8 81.2 129.2 95.2 204 5.2 27.2 7.6 55.2 7.6 82.8v10c-2 80.8-25.2 158.8-66.4 226.4-5.2 8.8-10.4 16.4-16 24-0.4 0.8-1.2 1.6-2 2.8l-4.4 5.6-21.6-21.6c-6.4-6.4-14-11.6-22.4-15.2l-6.4-2.8 3.2-6c50.4-93.6 33.2-211.2-42-286.4-46-46-106.8-71.2-171.6-71.2s-125.6 25.2-171.6 71.2c-75.6 76-92.8 190.4-42.8 285.2 11.2 21.2 25.6 40.8 42.8 58 46 46 106.8 71.2 171.6 71.2 40.4 0 80-10 114.8-28.8l6-3.2 2.8 6.4c3.6 8.4 8.8 16 15.2 22.4l20.4 20.4-6 4.4c-66 48-152 76.4-241.6 79.2h-14z m0-891.2h-9.2c-27.2 0.8-52.8 3.6-75.6 8.4-30 6-59.6 15.2-88.4 27.6-28.4 12.4-55.6 27.2-80.8 45.2-25.2 18-48.4 38-69.2 60.4-76.8 83.2-118.8 195.2-116 307.2 1.2 65.6 18 131.2 48.4 190.4 37.2 73.2 97.6 136.4 169.6 178.4 68 39.6 144.8 60.8 221.2 60.8h13.6c84.4-2.8 165.6-28.4 228.8-72.4l-10-10c-6-6-11.2-12.8-14.8-20.4-35.2 18-74.8 27.2-115.2 27.2-68 0-132.4-26.4-180.4-74.8-18-18-33.2-38.4-45.2-60.8-52.8-99.6-34.8-220 45.2-300 48.4-48 112.4-74.8 180.4-74.8s132 26.4 180.4 74.8c77.2 77.6 96.4 198 47.2 295.6 7.6 4 14.4 8.8 20.4 14.8l11.2 11.2c4.4-6.4 8.4-12.8 12.8-20 40.4-65.6 62.8-141.6 64.8-220v-9.6c0-26.8-2.4-54-7.6-80.4-13.2-72.8-45.2-141.6-92-198.4-36.8-44.4-83.6-82.4-136-109.6-61.6-32-128.4-49.6-194-50.4-3.2-0.4-6.4-0.4-9.6-0.4z" fill="#4A555F" p-id="11199"></path><path d="M510 1002.8v-12.4c4 0 8.4 0 12.4-0.4l0.4 12.4c-4 0-8.4 0.4-12.8 0.4z m-12.4 0c-4.4 0-8.4 0-12.8-0.4l0.4-12.4c4 0 8.4 0.4 12.4 0.4v12.4z m38-1.2l-0.8-12.4c4-0.4 8.4-0.4 12.4-0.8l1.2 12.4c-4.4 0.4-8.8 0.8-12.8 0.8z m-63.6 0c-4.4-0.4-8.4-0.4-12.8-0.8l1.2-12.4c4 0.4 8.4 0.8 12.4 0.8l-0.8 12.4z m88.8-2l-1.2-12.4c4-0.4 8.4-0.8 12.4-1.6l1.6 12.4c-4.4 0.4-8.4 1.2-12.8 1.6z m-114-0.4c-4.4-0.4-8.4-1.2-12.8-1.6l1.6-12.4c4 0.4 8.4 1.2 12.4 1.6l-1.2 12.4z m139.2-3.2l-2-12.4c4-0.8 8-1.2 12.4-2l2.4 12.4c-4.4 0.8-8.4 1.6-12.8 2z m-164.8 0c-4.4-0.8-8.4-1.6-12.4-2.4l2.4-12.4c4 0.8 8 1.6 12.4 2.4l-2.4 12.4z m190-4.8l-2.8-12.4c4-0.8 8-2 12-2.8l2.8 12.4c-4 1.2-8 2-12 2.8z m-214.8-0.4c-4-0.8-8.4-2-12.4-2.8l3.2-12.4c4 0.8 8 2 12 2.8l-2.8 12.4z m239.2-5.6l-3.2-12c4-1.2 8-2.4 12-3.2l3.6 12c-4 1.2-8 2.4-12.4 3.2z m-264-0.4c-4-1.2-8-2.4-12.4-3.6l3.6-12 12 3.6-3.2 12z m288.4-6.8l-4-12c4-1.2 8-2.8 11.6-4l4.4 12c-3.6 1.2-7.6 2.8-12 4z m-312.8-0.4c-4-1.2-8-2.8-12-4l4.4-12c4 1.2 8 2.8 11.6 4l-4 12z m336.8-8l-4.4-11.6c4-1.6 7.6-3.2 11.6-4.4l4.8 11.6c-4 1.2-8 2.8-12 4.4z m-360.8-0.8l-12-4.8 4.8-11.6c4 1.6 7.6 3.2 11.6 4.8l-4.4 11.6z m384.4-8.8l-5.2-11.6c3.6-1.6 7.6-3.6 11.2-5.2l5.2 11.2c-3.2 2-7.2 3.6-11.2 5.6z m-408-0.8c-4-1.6-7.6-3.6-11.6-5.2l5.6-11.2c3.6 1.6 7.6 3.6 11.2 5.2l-5.2 11.2z m431.2-10.4l-5.6-11.2c3.6-2 7.2-3.6 10.8-5.6l6 11.2c-3.6 2-7.6 4-11.2 5.6zM276.8 948c-3.6-2-7.6-4-11.2-6l6-11.2c3.6 2 7.2 4 10.8 5.6l-5.6 11.6z m476.4-11.2l-6.4-10.8c3.6-2 7.2-4 10.8-6.4l6.4 10.8c-3.6 2-7.2 4.4-10.8 6.4zM254.4 936c-3.6-2-7.2-4.4-10.8-6.4l6.4-10.8c3.6 2 7.2 4.4 10.8 6.4l-6.4 10.8z m520.4-12.4l-6.8-10.4c3.6-2.4 6.8-4.4 10.4-6.8l7.2 10.4c-3.6 2.4-7.2 4.4-10.8 6.8z m-542.4-1.2l-10.8-7.2 7.2-10.4c3.6 2.4 6.8 4.8 10.4 6.8l-6.8 10.8z m-20.8-14.4c-3.6-2.4-6.8-5.2-10.4-7.6l7.6-10c3.2 2.4 6.8 4.8 10 7.2l-7.2 10.4z m-20.4-15.2c-3.2-2.8-6.4-5.2-10-8l8-9.6c3.2 2.8 6.4 5.2 9.6 8l-7.6 9.6z m-19.6-16.4l-9.6-8.4 8.4-9.2c3.2 2.8 6 5.6 9.2 8.4l-8 9.2z m-18.4-17.6c-3.2-2.8-6-6-8.8-9.2l9.2-8.8c2.8 2.8 5.6 6 8.8 8.8l-9.2 9.2z m-17.6-18.4l-8.4-9.6 9.6-8.4c2.8 3.2 5.6 6 8.4 9.2l-9.6 8.8z m-16.8-18.8c-1.6-2-3.6-4.4-5.2-6.4-0.8-1.2-2-2.4-2.8-3.6l10-7.6c0.8 1.2 2 2.4 2.8 3.6 1.6 2 3.2 4 5.2 6.4l-10 7.6z m-16-20c-2.4-3.2-5.2-6.8-7.6-10.4l10.4-7.2c2.4 3.2 4.8 6.8 7.2 10l-10 7.6z m812.8-13.2l-10.4-7.2c2.4-3.2 4.8-6.8 6.8-10.4l10.4 6.8c-2 3.6-4.4 7.2-6.8 10.8z m-827.2-7.6c-2.4-3.6-4.8-7.2-6.8-10.8l10.8-6.8c2.4 3.6 4.4 6.8 6.8 10.4l-10.8 7.2z m841.2-13.6l-10.8-6.8c2-3.6 4.4-7.2 6.4-10.8l10.8 6.4c-2 4-4 7.6-6.4 11.2z m-855.2-8c-2-3.6-4.4-7.2-6.4-10.8l10.8-6.4c2 3.6 4 7.2 6.4 10.8l-10.8 6.4z m868.4-14l-10.8-6 6-10.8 11.2 6c-2.4 3.2-4.4 7.2-6.4 10.8z m-880.8-8c-2-3.6-4-7.6-6-11.2l11.2-5.6c2 3.6 3.6 7.2 5.6 11.2l-10.8 5.6z m892.4-14.4l-11.2-5.6c2-3.6 3.6-7.6 5.2-11.2l11.6 5.2c-1.6 3.6-3.6 7.6-5.6 11.6z m-904-8.4c-2-4-3.6-7.6-5.2-11.6l11.6-5.2c1.6 3.6 3.2 7.6 5.2 11.2l-11.6 5.6z m914.8-14.8l-11.6-4.8c1.6-3.6 3.2-7.6 4.8-11.6l11.6 4.8c-1.6 3.6-3.2 7.6-4.8 11.6z m-924.8-8.4l-4.8-12 11.6-4.4c1.6 4 2.8 7.6 4.4 11.6l-11.2 4.8z m934.4-15.2l-11.6-4.4c1.6-4 2.8-7.6 4-11.6l12 4c-1.6 4-3.2 8-4.4 12zM31.2 667.2c-1.6-4-2.8-8-4-12l12-4c1.2 4 2.4 8 4 11.6l-12 4.4z m951.6-15.6l-12-3.6 3.6-12 12 3.6c-0.8 4-2 8-3.6 12zM23.6 643.2c-1.2-4-2.4-8-3.6-12.4l12-3.2c1.2 4 2 8 3.2 12l-11.6 3.6z m966.4-16l-12-3.2c1.2-4 2-8 2.8-12l12.4 2.8c-1.2 4.4-2 8.4-3.2 12.4zM16.8 618.4c-0.8-4-2-8.4-2.8-12.4l12.4-2.8c0.8 4 1.6 8 2.8 12l-12.4 3.2z m978.8-16l-12.4-2.4 2.4-12 12.4 2.4c-0.8 3.6-1.6 8-2.4 12z m-984-8.8c-0.8-4-1.6-8.4-2-12.4l12.4-2c0.8 4 1.2 8 2 12.4l-12.4 2z m988.4-16.4l-12.4-2c0.8-4 1.2-8 1.6-12.4l12.4 1.6c-0.4 4.4-0.8 8.8-1.6 12.8zM7.6 568.4c-0.4-4-1.2-8.4-1.6-12.8l12.4-1.2c0.4 4 0.8 8.4 1.6 12.4l-12.4 1.6z m995.6-16.4l-12.4-1.2c0.4-4 0.8-8.4 1.2-12.4l12.4 0.8c-0.4 4.4-0.8 8.8-1.2 12.8zM4.8 543.2c-0.4-4.4-0.8-8.4-0.8-12.8l12.4-0.8c0.4 4 0.4 8.4 0.8 12.4l-12.4 1.2z m1000.4-16.4l-12.4-0.8c0.4-4 0.4-8.4 0.4-12.4l12.4 0.4c0 4 0 8.4-0.4 12.8zM3.6 518c0-4.4-0.4-8.4-0.4-12.8h12.4c0 4 0 8.4 0.4 12.4l-12.4 0.4z m989.6-16.8v-12.4l12.4-0.4v12.8h-12.4zM16 492.4L3.6 492c0-4.4 0.4-8.4 0.4-12.8l12.4 0.4c-0.4 4.8-0.4 8.8-0.4 12.8z m976.8-16c-0.4-4-0.4-8.4-0.8-12.4l12.4-0.8c0.4 4.4 0.4 8.4 0.8 12.8l-12.4 0.4z m-976-8.8l-12.4-0.8c0.4-4.4 0.8-8.4 1.2-12.8l12.4 1.2c-0.4 4.4-0.8 8.4-1.2 12.4z m974-16c-0.4-4-0.8-8.4-1.6-12.4l12.4-1.6c0.4 4 1.2 8.4 1.6 12.8l-12.4 1.2zM19.2 442.8l-12.4-1.6c0.4-4.4 1.2-8.4 1.6-12.8l12.4 2c-0.4 4.4-1.2 8.4-1.6 12.4z m968.4-15.6c-0.8-4-1.2-8-2-12.4l12.4-2.4c0.8 4 1.6 8.4 2 12.4l-12.4 2.4zM22.8 418.4l-12.4-2c0.8-4 1.6-8.4 2.4-12.4l12.4 2.4-2.4 12z m960.4-15.6c-0.8-4-1.6-8-2.8-12l12.4-2.8c0.8 4 2 8.4 2.8 12.4l-12.4 2.4zM27.6 394l-12.4-2.8c0.8-4 2-8.4 2.8-12.4l12 3.2c-0.4 4-1.6 8-2.4 12z m950-15.6c-1.2-4-2-8-3.2-12l12-3.6c1.2 4 2.4 8 3.2 12.4l-12 3.2z m-944-8.4l-12-3.2c1.2-4 2.4-8 3.6-12.4l12 3.6-3.6 12z m937.2-15.2c-1.2-4-2.4-8-4-11.6l12-4c1.2 4 2.8 8 4 12l-12 3.6zM40.8 346l-12-4c1.2-4 2.8-8 4-12l12 4.4c-1.2 4-2.4 8-4 11.6z m922-14.8c-1.6-4-2.8-7.6-4.4-11.6l11.6-4.8c1.6 4 3.2 8 4.4 12l-11.6 4.4zM49.2 322.8l-11.6-4.4c1.6-4 3.2-8 4.8-11.6l11.6 4.8c-1.6 3.6-3.2 7.2-4.8 11.2zM953.6 308c-1.6-4-3.2-7.6-5.2-11.2l11.6-5.2c1.6 4 3.6 7.6 5.2 11.6l-11.6 4.8zM59.2 300l-11.6-5.2c1.6-4 3.6-7.6 5.6-11.6l11.2 5.6c-2 3.6-3.6 7.2-5.2 11.2z m884-14.4c-2-3.6-3.6-7.2-5.6-11.2l11.2-6c2 3.6 4 7.6 5.6 11.2l-11.2 6z m-873.2-8L58.8 272c2-3.6 4-7.6 6-11.2l11.2 6c-2.4 3.6-4.4 7.2-6 10.8z m861.6-14l-6-10.8 10.8-6.4c2 3.6 4.4 7.2 6.4 11.2l-11.2 6zM82 256l-10.8-6.4c2-3.6 4.4-7.2 6.4-10.8l10.8 6.8c-2.4 3.2-4.4 6.8-6.4 10.4z m837.2-13.6c-2.4-3.6-4.4-6.8-6.8-10.4l10.4-6.8c2.4 3.6 4.8 7.2 6.8 10.8l-10.4 6.4zM94.8 234.8L84.4 228c2.4-3.6 4.8-7.2 7.2-10.4l10.4 7.2c-2.4 3.2-4.8 6.4-7.2 10z m810.4-13.2l-6-8.4-1.2-1.6L908 204l1.2 1.6 6 8.4-10 7.6zM108.8 214.4l-10-7.6 0.8-1.2c2.4-3.2 4.4-6 6.8-9.2l10 7.6c-2.4 2.8-4.4 6-6.8 8.8l-0.8 1.6z m781.6-12.8c-2.4-3.2-5.2-6.4-7.6-9.6l9.6-8c2.8 3.2 5.2 6.8 8 10l-10 7.6zM124 194.4l-9.6-8c2.8-3.2 5.2-6.4 8-10l9.6 8c-2.8 3.6-5.2 6.8-8 10z m750.8-12c-2.8-3.2-5.6-6.4-8.4-9.2l9.2-8.4 8.4 9.6-9.2 8zM140 175.6l-9.2-8.4c2.8-3.2 5.6-6.4 8.8-9.2l9.2 8.8c-3.2 2.8-6 5.6-8.8 8.8zM858.4 164c-2.8-2.8-5.6-6-8.8-8.8l8.8-8.8c3.2 2.8 6 6 8.8 9.2l-8.8 8.4zM157.2 157.6l-8.8-8.8c2.8-3.2 6-6 9.2-8.8l8.8 9.2c-3.2 2.4-6.4 5.6-9.2 8.4z m683.6-11.2c-3.2-2.8-6-5.6-9.2-8.4l8.4-9.2c3.2 2.8 6.4 5.6 9.2 8.8l-8.4 8.8zM175.2 140.4l-8.4-9.2 9.6-8.4 8.4 9.6c-3.6 2.4-6.8 5.2-9.6 8z m646.8-10.4c-3.2-2.8-6.4-5.2-9.6-8l8-9.6c3.2 2.8 6.4 5.2 9.6 8l-8 9.6zM193.6 124l-8-9.6c3.2-2.8 6.4-5.2 10-8l7.6 10c-2.8 2.4-6.4 5.2-9.6 7.6z m609.2-9.6c-3.2-2.4-6.4-5.2-10-7.6l7.6-10c3.6 2.4 6.8 5.2 10 7.6l-7.6 10zM213.2 108.8l-7.6-10c3.6-2.4 6.8-5.2 10.4-7.6l7.2 10.4c-3.2 2.4-6.4 4.8-10 7.2z m569.6-9.2c-3.2-2.4-6.8-4.8-10.4-6.8l6.8-10.4c3.6 2.4 7.2 4.8 10.4 7.2l-6.8 10zM233.6 94.4L226.8 84c3.6-2.4 7.2-4.8 10.8-6.8l6.8 10.8c-4 2-7.2 4-10.8 6.4z m528.4-8.4c-3.6-2-7.2-4.4-10.8-6.4l6.4-10.8c3.6 2 7.2 4.4 10.8 6.4l-6.4 10.8zM254.4 81.2L248 70.4c3.6-2 7.2-4.4 11.2-6.4l6 10.8c-3.6 2.4-7.2 4.4-10.8 6.4z m486.4-8l-10.8-6L736 56c3.6 2 7.6 4 11.2 6l-6.4 11.2zM276 69.2l-6-11.2c3.6-2 7.6-4 11.2-6l5.6 11.2c-3.2 2-6.8 4-10.8 6z m442.8-7.2c-3.6-2-7.6-3.6-11.2-5.2l5.2-11.6c4 1.6 7.6 3.6 11.6 5.6l-5.6 11.2z m-420.4-4l-5.2-11.2c4-1.6 7.6-3.6 11.6-5.2l5.2 11.6c-4 1.6-8 3.2-11.6 4.8z m397.6-6.4c-4-1.6-7.6-3.2-11.6-4.8l4.8-11.6c4 1.6 8 3.2 11.6 4.8l-4.8 11.6zM321.2 48l-4.8-11.6 12-4.8 4.4 11.6c-4 2-8 3.6-11.6 4.8z m351.6-5.6c-4-1.6-7.6-2.8-11.6-4l4-12c4 1.2 8 2.8 12 4.4l-4.4 11.6z m-328.4-2.8l-4-12c4-1.2 8-2.8 12-4l4 12c-4.4 1.2-8 2.4-12 4z m305.2-5.2l-12-3.6 3.6-12c4 1.2 8 2.4 12.4 3.6l-4 12zM368 32l-3.6-12c4-1.2 8-2.4 12.4-3.2l3.2 12c-4 0.8-8 2-12 3.2z m257.6-4.4c-4-1.2-8-2-12-2.8l2.8-12.4c4 0.8 8.4 2 12.4 2.8l-3.2 12.4zM392 25.6l-2.8-12.4c4-0.8 8.4-2 12.4-2.8l2.4 12.4c-4 0.8-8 2-12 2.8z m209.2-3.6c-4-0.8-8-1.6-12.4-2.4l2-12.4c4 0.8 8.4 1.6 12.4 2.4l-2 12.4zM416 20.4l-2-12.4c4-0.8 8.4-1.6 12.4-2l2 12.4c-4 0.8-8.4 1.6-12.4 2z m160.8-2.4c-4-0.8-8-1.2-12.4-1.6l1.6-12.4c4.4 0.4 8.4 1.2 12.8 1.6l-2 12.4z m-136-1.2l-1.6-12.4c4-0.4 8.4-1.2 12.8-1.6l1.2 12.4c-4.4 0.4-8.4 0.8-12.4 1.6z m111.2-2c-4-0.4-8.4-0.8-12.4-1.2l0.8-12.4c4.4 0.4 8.4 0.8 12.8 1.2l-1.2 12.4z m-86.8-0.8l-0.8-12.4c4.4-0.4 8.4-0.8 12.8-0.8l0.8 12.4c-4.4 0.4-8.4 0.4-12.8 0.8z m62-0.8c-4 0-8.4-0.4-12.4-0.4l0.4-12.4c4.4 0 8.4 0.4 12.8 0.4l-0.8 12.4z m-37.2-0.4l-0.4-12.4c4.4 0 8.4 0 12.8-0.4v12.4c-4 0-8.4 0.4-12.4 0.4z" fill="#4A555F" p-id="11200"></path><path d="M504.4 953.2c-48.4 0-93.6-47.6-127.2-134.4-32.8-84.8-50.8-197.6-50.8-317.2S344.8 268.8 377.6 184c33.2-86.8 78.4-134.4 127.2-134.4 78.8 0 147.2 128 170 318.4l-12.4 1.6c-21.6-181.2-86.4-307.6-157.6-307.6-42.4 0-84.4 46-115.2 126.4-32 83.6-50 194.4-50 312.8s17.6 229.2 50 312.8c30.8 80.4 72.8 126.4 115.2 126.4 34.8 0 68-29.2 96.8-84.8l11.2 5.6c-31.2 60.4-68.4 92-108.4 92z" fill="#4A555F" p-id="11201"></path><path d="M504.4 309.6c-142.4 0-274.4-24-362.8-65.2l-6.8-3.2 4.4-6C224 119.2 360.4 49.6 504 49.6c143.6 0 280 69.2 364.8 185.6l4.4 6-6.8 3.2c-87.2 41.6-219.6 65.2-362 65.2zM154.4 236.4c86.4 38.8 213.6 60.8 350.4 60.8 136.8 0 264-22 350.4-60.8-82.8-109.2-213.2-174-350.4-174-137.6-0.4-267.6 64.8-350.4 174zM504.4 953.2H496c-66.4-1.6-129.6-17.2-188.4-45.6-53.2-25.6-100.4-62-148-114.4-2.4-2.8-4.8-6-7.2-8.8l-5.2-6.4 7.2-3.6c61.2-26.4 141.2-45.2 231.6-54l4-0.4 2 3.6c11.2 21.2 25.6 40.8 42.8 58 46 46 106.8 71.2 171.6 71.2 40.4 0 80-10 114.8-28.8l6-3.2 2.8 6.4c3.6 8.4 8.8 16 15.2 22.4l20.4 20.4-5.6 4.4c-23.6 18.4-53.6 34-94 49.6-33.6 12.8-68.8 21.6-104.4 26.4-18.4 1.6-37.6 2.8-57.2 2.8z m-337.2-170.4c0.4 0.8 1.2 1.2 1.6 2 46.8 50.8 92.4 86.4 144.4 111.6 57.2 27.6 118.8 42.8 182.8 44.4h8.4c18.8 0 37.6-1.2 55.6-3.6 34.8-4.4 68.8-13.2 101.6-25.6 36-14 63.6-27.6 85.2-43.2l-10-10c-6-6-11.2-12.8-14.8-20.4-35.2 18-74.8 27.2-115.2 27.2-68 0-132.4-26.4-180.4-74.8-17.2-17.2-31.6-36.4-43.2-57.2-83.6 8.4-158 25.6-216 49.6z" fill="#4A555F" p-id="11202"></path><path d="M832.4 495.2h118v12.4h-118z" fill="#4A555F" p-id="11203"></path><path d="M58.8 498.8h320.8v12.4H58.8z" fill="#4A555F" p-id="11204"></path></svg>